<svg xmlns="http://www.w3.org/2000/svg" width="20" height="20" viewBox="0 0 32.962 32.954"><defs><style>.a{fill:#fff;}</style></defs><path class="a" d="M16.479,10.266a8.449,8.449,0,1,0,8.449,8.449A8.436,8.436,0,0,0,16.479,10.266Zm0,13.942a5.493,5.493,0,1,1,5.493-5.493A5.5,5.5,0,0,1,16.479,24.208ZM27.245,9.92a1.971,1.971,0,1,1-1.971-1.971A1.966,1.966,0,0,1,27.245,9.92Zm5.6,2a9.753,9.753,0,0,0-2.662-6.9,9.817,9.817,0,0,0-6.9-2.662c-2.721-.154-10.876-.154-13.6,0a9.8,9.8,0,0,0-6.9,2.655,9.785,9.785,0,0,0-2.662,6.9c-.154,2.721-.154,10.876,0,13.6a9.753,9.753,0,0,0,2.662,6.9,9.829,9.829,0,0,0,6.9,2.662c2.721.154,10.876.154,13.6,0a9.753,9.753,0,0,0,6.9-2.662,9.817,9.817,0,0,0,2.662-6.9c.154-2.721.154-10.868,0-13.589ZM29.326,28.429a5.561,5.561,0,0,1-3.133,3.133c-2.169.86-7.317.662-9.714.662s-7.552.191-9.714-.662a5.561,5.561,0,0,1-3.133-3.133c-.86-2.169-.662-7.317-.662-9.714S2.78,11.163,3.633,9A5.561,5.561,0,0,1,6.765,5.868c2.169-.86,7.317-.662,9.714-.662s7.552-.191,9.714.662A5.561,5.561,0,0,1,29.326,9c.86,2.169.662,7.317.662,9.714S30.186,26.267,29.326,28.429Z" transform="translate(0.005 -2.238)"/></svg>