<svg xmlns="http://www.w3.org/2000/svg" width="20" height="20" viewBox="0 0 32.736 32.736"><defs><style>.a{fill:#fff;}</style></defs><path class="a" d="M27.833,7.007A16.227,16.227,0,0,0,2.3,26.583L0,34.986l8.6-2.258A16.173,16.173,0,0,0,16.354,34.7h.007A16.378,16.378,0,0,0,32.736,18.479a16.286,16.286,0,0,0-4.9-11.472ZM16.361,31.968A13.459,13.459,0,0,1,9.492,30.09L9,29.8,3.9,31.135l1.359-4.976-.322-.512A13.509,13.509,0,1,1,30,18.479,13.634,13.634,0,0,1,16.361,31.968Zm7.395-10.1c-.4-.2-2.4-1.184-2.769-1.315s-.643-.2-.913.2-1.045,1.315-1.286,1.593-.475.307-.877.1c-2.382-1.191-3.946-2.126-5.517-4.823-.417-.716.417-.665,1.191-2.214a.751.751,0,0,0-.037-.709c-.1-.2-.913-2.2-1.25-3.011-.329-.789-.665-.68-.913-.694s-.5-.015-.775-.015a1.5,1.5,0,0,0-1.081.5,4.555,4.555,0,0,0-1.418,3.383,7.941,7.941,0,0,0,1.651,4.194c.2.27,2.857,4.362,6.927,6.123,2.572,1.111,3.581,1.206,4.867,1.016a4.152,4.152,0,0,0,2.733-1.929,3.39,3.39,0,0,0,.234-1.929C24.428,22.169,24.158,22.067,23.756,21.87Z" transform="translate(0 -2.25)"/></svg>